<?xml version="1.0" encoding="utf-8"?>
<!-- Generator: Adobe Illustrator 23.1.1, SVG Export Plug-In . SVG Version: 6.00 Build 0)  -->
<svg version="1.1" id="Layer_1" xmlns="http://www.w3.org/2000/svg" xmlns:xlink="http://www.w3.org/1999/xlink" x="0px" y="0px"
	 viewBox="0 0 380 340" style="enable-background:new 0 0 380 340;" xml:space="preserve">
<style type="text/css">
	.st0{fill:#D5D3DD;}
	.st1{fill:#E2CBB5;}
	.st2{fill:#BF6C35;}
	.st3{fill:#FFFFFF;}
	.st4{fill:#9FA628;}
	.st5{fill:#663F4C;}
</style>
<g id="Human_16_">
	<g id="Teeth_9_">
		<path class="st0" d="M290,102v3c0,1.7,1.3,3,3,3s3-1.3,3-3v-3H290z"/>
		<path class="st0" d="M278,102v3c0,1.7,1.3,3,3,3s3-1.3,3-3v-3H278z"/>
		<path class="st0" d="M266,102v3c0,1.7,1.3,3,3,3s3-1.3,3-3v-3H266z"/>
		<path class="st0" d="M254,102v3c0,1.7,1.3,3,3,3s3-1.3,3-3v-3H254z"/>
		<path class="st0" d="M284,122v-3c0-1.7,1.3-3,3-3s3,1.3,3,3v3H284z"/>
		<path class="st0" d="M272,122v-3c0-1.7,1.3-3,3-3s3,1.3,3,3v3H272z"/>
		<path class="st0" d="M260,122v-3c0-1.7,1.3-3,3-3s3,1.3,3,3v3H260z"/>
		<path class="st0" d="M248,122v-3c0-1.7,1.3-3,3-3s3,1.3,3,3v3H248z"/>
	</g>
	<path id="Body_12_" class="st1" d="M338.8,228L324,213.2V208c0-13.9-10.4-25.8-24-27.7V176h4c15.4,0,28-12.6,28-28v-28
		c0-2.2-1.8-4-4-4s-4,1.8-4,4v1c0,0.6-0.4,1-1,1s-1-0.4-1-1v-1c0-2.2-1.8-4-4-4s-4,1.8-4,4v1c0,0.6-0.4,1-1,1s-1-0.4-1-1v-1
		c0-2.2-1.8-4-4-4s-4,1.8-4,4v24c0,2.2-1.8,4-4,4v-28h-52c-4.4,0-8-3.6-8-8s3.6-8,8-8h52v-6.3c3.4-0.9,6-4,6-7.7s-2.6-6.8-6-7.7V72
		l-6-7l-6,5l-6-6l-6,6l-6-6l-6,6l-6-6l-6,6l-6-6l-6,6l-6-5l-6,7v10.3c-3.4,0.9-6,4-6,7.7s2.6,6.8,6,7.7V148c-2.2,0-4-1.8-4-4v-24
		c0-2.2-1.8-4-4-4s-4,1.8-4,4v1c0,0.6-0.4,1-1,1s-1-0.4-1-1v-1c0-2.2-1.8-4-4-4s-4,1.8-4,4v1c0,0.6-0.4,1-1,1s-1-0.4-1-1v-1
		c0-2.2-1.8-4-4-4s-4,1.8-4,4v28c0,15.4,12.6,28,28,28h4v16c0,2.2-1.8,4-4,4h-16v42.8l14.8-14.8h5.2c10.9,0,20.7-6.2,25.3-16H292
		c2.2,0,4,1.8,4,4v16H338.8z"/>
	<path id="Hair_6_" class="st2" d="M276,44h-24c-15.3,0-24,8.7-24,24v4l6-6l6,6l6-6l6,6l6-6l6,6l6-6l6,6l6-6l6,6l6-6l6,6v-4
		C300,52.7,291.3,44,276,44z"/>
	<g id="Eye_Left_11_">
		<circle class="st3" cx="252" cy="86" r="9"/>
		<circle class="st4" cx="252" cy="86" r="5"/>
	</g>
	<g id="Eye_Right_11_">
		<circle class="st3" cx="276" cy="86" r="9"/>
		<circle class="st4" cx="276" cy="86" r="5"/>
	</g>
</g>
<g id="Martian_7_">
	<g id="Teeth_8_">
		<polygon class="st0" points="136,120 132,112 128,120 132,122 		"/>
		<polygon class="st0" points="124,120 120,112 116,120 120,122 		"/>
		<polygon class="st0" points="112,120 108,112 104,120 108,122 		"/>
		<polygon class="st0" points="100,120 96,112 92,120 96,122 		"/>
		<polygon class="st0" points="88,120 84,112 80,120 84,122 		"/>
		<polygon class="st0" points="130,104 126,112 122,104 126,102 		"/>
		<polygon class="st0" points="118,104 114,112 110,104 114,102 		"/>
		<polygon class="st0" points="106,104 102,112 98,104 102,102 		"/>
		<polygon class="st0" points="94,104 90,112 86,104 90,102 		"/>
	</g>
	<g id="Thorns_4_">
		<polygon class="st1" points="68,187.4 43.9,174 68,160.6 		"/>
		<polygon class="st1" points="68,167.4 43.9,154 68,140.6 		"/>
		<polygon class="st1" points="68,147.4 43.9,134 68,120.6 		"/>
		<polygon class="st1" points="68,127.4 43.9,114 68,100.6 		"/>
	</g>
	<path id="Body_7_" class="st4" d="M84,120c-4.4,0-8-3.6-8-8s3.6-8,8-8h52V68c0-6.7-1.7-12.2-4.9-16.2l5.3-5.3
		c1.6,1,3.5,1.5,5.7,1.5c1.1,0,2-0.9,2-2s-0.9-2-2-2c-3.8,0-6-2.2-6-6c0-1.1-0.9-2-2-2s-2,0.9-2,2c0,2.2,0.5,4.1,1.5,5.7l-5.3,5.3
		c-4-3.2-9.5-4.9-16.2-4.9H88c-6.7,0-12.2,1.7-16.2,4.9l-5.3-5.3c1-1.6,1.5-3.5,1.5-5.7c0-1.1-0.9-2-2-2s-2,0.9-2,2c0,3.8-2.2,6-6,6
		c-1.1,0-2,0.9-2,2s0.9,2,2,2c2.2,0,4.1-0.5,5.7-1.5l5.3,5.3c-3.2,4-4.9,9.5-4.9,16.2v124c0,2.2-1.8,4-4,4H44v42.8L58.8,224H64
		c10.9,0,20.7-6.2,25.3-16H128c2.2,0,4,1.8,4,4v16h42.8L160,213.2V208c0-13.9-10.4-25.8-24-27.7V180h51.7l-11.6-9.3l14.2-4.7
		l-14.2-4.7l11.6-9.3H136v-4h51.7l-11.6-9.3l14.2-4.7l-14.2-4.7l11.6-9.3H84z"/>
	<g id="Eye_Left_10_">
		<circle class="st3" cx="88" cy="86" r="9"/>
		<circle class="st2" cx="88" cy="86" r="5"/>
	</g>
	<g id="Eye_Right_10_">
		<circle class="st3" cx="112" cy="86" r="9"/>
		<circle class="st2" cx="112" cy="86" r="5"/>
	</g>
</g>
<path class="st5" d="M255.8,263.5l5.6,1.8c-1.9,8.5-4.7,15.6-8.3,21.4c-4.2,6.5-9.5,11.1-16,14l-0.5,0.2l-2.5-5.8
	c5.9-2.5,10.7-6.7,14.4-12.6C251.7,277.5,254.1,271.2,255.8,263.5z M315.9,261.6l5.7,2c-3.6,19.2-11.6,31.5-24.1,37.1l-0.4,0.2
	l-2.5-5.8c5.9-2.5,10.7-6.8,14.3-13.1C312.1,276.7,314.5,269.9,315.9,261.6z M345,255.4l2,1.7c-0.8,7.2-2.9,14.5-6,21.8
	c4.3,5.5,7.9,11.5,10.9,17.9l-5,3.6c-2.5-5.6-5.5-10.7-8.8-15.5c-3.6,6.6-7.7,11.9-12.4,16l-3.5-4.9c3.7-3.2,7.3-7.9,10.7-14
	c3.9-7,6.5-13.8,7.7-20.5h-14.4v-6H345z M122.2,254.1V280c0,4.9-0.5,9.1-1.5,12.5c-1,3.2-2.3,5.8-4.1,7.9l-0.3,0.3l-4.4-4
	c1.4-1.6,2.5-3.8,3.2-6.6c0.7-2.7,1-5.9,1.1-9.7l0-0.7v-25.7H122.2z M45.6,250.1l5.5,2.5c-2.2,4.8-5.2,9.6-9.1,14.6l-0.6,0.7v32.4
	h-6v-25.5c-3.1,3.2-6.2,6-9.2,8.4l-0.7,0.5l-3.6-5.2c4.4-3.2,8.7-7.4,13-12.4C39.6,260.7,43.2,255.3,45.6,250.1z M274.2,262.2
	l1.3,10.5l11.6-2.9l2.9,2.4c-0.3,1.8-1.1,4.1-2.3,7l-0.2,0.5l-0.4,0.9c-1.5,3-2.9,5.6-4.4,7.8l-0.3,0.5l-4.4-3.2
	c1-1.4,1.9-2.8,2.7-4.2c0.8-1.3,1.5-2.7,2.2-4l0.5-1l-7.3,1.9l2.5,20.8l-5.7,1l-2.4-20.4l-5.5,1.4l-1.4-5.5l6.3-1.6l-1.3-10.9
	L274.2,262.2z M132.1,252.9V285l-0.6,4.2c0.8-1.8,1.6-4,2.5-6.5l1.6-5.1c0.2-0.5,0.3-1.1,0.5-1.6l5.5,2l-0.5,1.4
	c-1.2,3.1-2.7,6.4-4.4,10.1l-0.5,1c-2.1,4.1-3.9,7.2-5.4,9.3l-4.7-1.4v-45.6H132.1z M198.4,257.1l2.1,2.1c-1.1,4.4-2.9,9.5-5.5,15
	c-2.1,4.6-4.2,8.5-6.2,11.6c2.8,3,5.3,5.9,7.3,8.7l0.5,0.6l-4.4,3.8c-4.1-5.7-10.1-12.1-18.2-19.1l-0.7-0.6l3.9-4.4
	c1.8,1.5,3.4,3,5,4.5l0.8,0.7l1.5,1.5c0.7-1.3,1.6-2.7,2.5-4.4l0.3-0.6l0.6-1.1c2.3-4.5,4.1-8.5,5.3-11.9l0.2-0.5h-20.9v-5.9H198.4z
	 M89.9,252v19.1c2.3-1,4.6-2.1,6.9-3.4c2.6-1.5,5.2-3.2,7.8-5.2l0.9-0.7l3.3,5.1c-2.6,2-6,4.1-10.2,6.4c-3,1.6-5.8,2.8-8.2,3.8
	l-0.5,0.2v12.4c0,1.6,0.5,2.5,1.7,2.9c0.5,0.2,1.4,0.3,2.8,0.3l0.3,0l0.6,0c4,0,8.4-0.3,13.2-0.8l1-0.1v5.9
	c-4.4,0.5-9.2,0.8-14.3,0.8c-4.3,0-7.2-0.5-8.7-1.6c-1.7-1.3-2.6-3.6-2.7-7.1l0-0.4V252H89.9z M157.5,271.1c1.2,0,2.2,0.4,3.1,1.2
	l0.2,0.2c0.9,0.8,1.4,1.9,1.4,3.2c0,1.3-0.5,2.3-1.4,3.2c-0.9,0.9-2,1.4-3.2,1.4c-1.3,0-2.4-0.5-3.2-1.4c-1-0.9-1.4-2-1.4-3.2
	c0-1.3,0.4-2.4,1.4-3.2C155.1,271.5,156.2,271.1,157.5,271.1z M234.5,265.8c5.3,2.5,9.5,5,12.7,7.5l0.4,0.3l-3.1,5.1
	c-2.9-2.5-6.9-4.9-11.9-7.2l-0.6-0.3L234.5,265.8z M79.2,272.9v5.6H54v-5.6H79.2z M229.2,272.9v5.6H204v-5.6H229.2z M296,254.2
	c5.1,4.1,9.2,8,12.3,11.7l0.4,0.5l-4.4,4.1c-2.4-3.1-5.8-6.4-10.3-10.2l-0.5-0.5l-1.1-0.9L296,254.2z M237.6,252.1
	c4.9,2.2,9.3,4.8,13,7.7l0.6,0.5l-3.4,5c-3.3-2.7-7.3-5.2-12-7.4l-0.7-0.3L237.6,252.1z M105.4,250.8c1.7,1.9,3.2,4.3,4.4,7.3
	l-3.1,1.6c-1-2.6-2.3-4.9-4.1-7L105.4,250.8z M349.4,250.8c1.7,1.9,3.2,4.3,4.4,7.3l-3.1,1.6c-1-2.6-2.3-4.9-4.1-7L349.4,250.8z
	 M109.7,248.5c1.8,2,3.3,4.4,4.5,7.1l0,0l-3.1,1.7c-0.9-2.5-2.3-4.9-4.1-7l0,0L109.7,248.5z M353.7,248.5c1.8,2,3.3,4.4,4.5,7.1l0,0
	l-3.1,1.7c-0.9-2.5-2.3-4.9-4.1-7l0,0L353.7,248.5z"/>
</svg>
