<svg width="100" height="84" viewBox="0 0 100 84" fill="none" xmlns="http://www.w3.org/2000/svg">
<path d="M84.1463 10.9565V0H73.1707V3.04348H47.561V0H36.5854V3.04348H10.9756V0H0V10.9565H3.04878V24.3478H0V35.3043H3.04878V48.6957H0V59.6522H10.9756V56.6087H36.5854V59.6522H47.561V56.6087H73.1707V59.6522H84.1463V48.6957H81.0976V35.3043H84.1463V24.3478H81.0976V10.9565H84.1463ZM39.0244 2.43478H45.1219V8.52174H39.0244V2.43478ZM2.43902 8.52174V2.43478H8.53658V8.52174H2.43902ZM2.43902 32.8696V26.7826H8.53658V32.8696H2.43902ZM8.53658 57.2174H2.43902V51.1304H8.53658V57.2174ZM45.1219 57.2174H39.0244V51.1304H45.1219V57.2174ZM73.1707 51.7391H47.561V48.6957H36.5854V51.7391H10.9756V48.6957H7.92683V35.3043H10.9756V24.3478H7.92683V10.9565H10.9756V7.91304H36.5854V10.9565H47.561V7.91304H73.1707V10.9565H76.2195V24.3478H73.1707V35.3043H76.2195V48.6957H73.1707V51.7391ZM81.7073 51.1304V57.2174H75.6097V51.1304H81.7073ZM81.7073 26.7826V32.8696H75.6097V26.7826H81.7073ZM75.6097 8.52174V2.43478H81.7073V8.52174H75.6097Z" fill="url(#paint0_linear_2_1798)"/>
<path d="M43.2927 25.5654H40.8537V28.6089H37.8049V31.0437H40.8537V34.0872H43.2927V31.0437H46.3415V28.6089H43.2927V25.5654Z" fill="#177BD3"/>
<path fill-rule="evenodd" clip-rule="evenodd" d="M99.1157 74.3703H87.3109L78.884 82.7825V54.1738L99.1157 74.3703Z" fill="white"/>
<defs>
<linearGradient id="paint0_linear_2_1798" x1="84.1463" y1="59.6522" x2="84.1463" y2="0" gradientUnits="userSpaceOnUse">
<stop stop-color="#1D40B2"/>
<stop offset="1" stop-color="#1680D6"/>
</linearGradient>
</defs>
</svg>
